<svg xmlns="http://www.w3.org/2000/svg" viewBox="0 0 192 192">
  <defs>
    <linearGradient id="bg" x1="0" y1="0" x2="0" y2="1">
      <stop offset="0%" stop-color="#162e4d"/>
      <stop offset="100%" stop-color="#050f1e"/>
    </linearGradient>
    <linearGradient id="gold" x1="0" y1="0" x2="1" y2="1">
      <stop offset="0%" stop-color="#ead498"/>
      <stop offset="50%" stop-color="#d4ac4a"/>
      <stop offset="100%" stop-color="#a98442"/>
    </linearGradient>
  </defs>
  <rect width="192" height="192" rx="32" fill="url(#bg)"/>
  <rect x="10" y="10" width="172" height="172" rx="26" fill="none" stroke="url(#gold)" stroke-width="1.5" opacity="0.6"/>
  <g transform="translate(96 96)">
    <g transform="rotate(45)" stroke="url(#gold)" stroke-width="6" fill="none" stroke-linecap="round">
      <circle cx="-45" cy="0" r="15" fill="#050f1e"/>
      <circle cx="-45" cy="0" r="6" fill="url(#gold)" stroke="none"/>
      <line x1="-30" y1="0" x2="51" y2="0"/>
      <line x1="30" y1="0" x2="30" y2="12"/>
      <line x1="42" y1="0" x2="42" y2="12"/>
      <line x1="51" y1="0" x2="51" y2="9"/>
    </g>
    <g transform="rotate(-45)" stroke="url(#gold)" stroke-width="6" fill="none" stroke-linecap="round">
      <circle cx="-45" cy="0" r="15" fill="#050f1e"/>
      <circle cx="-45" cy="0" r="6" fill="url(#gold)" stroke="none"/>
      <line x1="-30" y1="0" x2="51" y2="0"/>
      <line x1="30" y1="0" x2="30" y2="12"/>
      <line x1="42" y1="0" x2="42" y2="12"/>
      <line x1="51" y1="0" x2="51" y2="9"/>
    </g>
  </g>
</svg>
